<?xml version="1.0" encoding="UTF-8" standalone="no"?>
<svg
   width="373mm"
   height="210mm"
   viewBox="0 0 373 210"
   version="1.1"
   id="svg8"
   sodipodi:docname="background_title.svg"
   inkscape:version="1.1.1 (3bf5ae0d25, 2021-09-20, custom)"
   xmlns:inkscape="http://www.inkscape.org/namespaces/inkscape"
   xmlns:sodipodi="http://sodipodi.sourceforge.net/DTD/sodipodi-0.dtd"
   xmlns="http://www.w3.org/2000/svg"
   xmlns:svg="http://www.w3.org/2000/svg"
   xmlns:rdf="http://www.w3.org/1999/02/22-rdf-syntax-ns#"
   xmlns:cc="http://creativecommons.org/ns#"
   xmlns:dc="http://purl.org/dc/elements/1.1/">
  <sodipodi:namedview
     pagecolor="#ffffff"
     bordercolor="#666666"
     borderopacity="1"
     objecttolerance="10"
     gridtolerance="10"
     guidetolerance="10"
     inkscape:pageopacity="0"
     inkscape:pageshadow="2"
     inkscape:window-width="3840"
     inkscape:window-height="2140"
     id="namedview1902"
     showgrid="false"
     inkscape:zoom="0.92497766"
     inkscape:cx="705.42244"
     inkscape:cy="397.84745"
     inkscape:window-x="1920"
     inkscape:window-y="20"
     inkscape:window-maximized="1"
     inkscape:current-layer="text2361"
     inkscape:pagecheckerboard="0"
     inkscape:document-units="mm"
     inkscape:object-paths="true"
     inkscape:snap-text-baseline="true"
     inkscape:snap-smooth-nodes="true" />
  <defs
     id="defs2" />
  <metadata
     id="metadata5">
    <rdf:RDF>
      <cc:Work
         rdf:about="">
        <dc:format>image/svg+xml</dc:format>
        <dc:type
           rdf:resource="http://purl.org/dc/dcmitype/StillImage" />
      </cc:Work>
    </rdf:RDF>
  </metadata>
  <g
     id="layer1"
     transform="translate(0,-87)">
    <rect
       style="opacity:1;fill:#f1f1f1;fill-opacity:1;stroke:none;stroke-width:2.83751941;stroke-linejoin:miter;stroke-miterlimit:4;stroke-dasharray:none;stroke-dashoffset:0;stroke-opacity:1"
       id="rect815"
       width="373"
       height="210"
       x="0"
       y="87" />
    <g
       aria-label="BUILD"
       id="text2361"
       style="font-size:50.8px;font-family:'Inconsolata Nerd Font Mono';-inkscape-font-specification:'Inconsolata Nerd Font Mono';letter-spacing:0px;word-spacing:0px;fill:#b3bec3;stroke-width:0.264583">
      <path
         d="m 258.07453,165.05194 v 35.56 h 17.4244 c 9.0424,0 12.2428,-5.4864 12.2428,-10.668 0,-2.8448 -1.4224,-6.4516 -5.1816,-7.874 2.9972,-1.4224 4.0132,-4.2672 4.0132,-7.366 0,-4.826 -2.9464,-9.652 -11.7348,-9.652 z m 16.002,13.8684 h -8.2804 v -6.6548 h 9.0932 c 3.2512,0 3.81,1.7272 3.81,3.302 0,2.032 -1.4224,3.3528 -4.6228,3.3528 z m 1.778,14.4272 h -10.0584 v -7.4676 h 8.6868 c 4.5212,0 5.4356,2.032 5.4356,3.9116 0,1.5748 -0.9652,3.556 -4.064,3.556 z"
         style="-inkscape-font-specification:'Overpass Heavy'"
         id="path20369" />
      <path
         d="m 308.21417,201.22154 c 7.3152,0 14.8336,-3.7084 14.8336,-14.3256 v -21.844 h -7.7216 v 21.844 c 0,5.2324 -2.54,6.858 -7.112,6.858 -4.7244,0 -7.112,-1.6256 -7.112,-6.858 v -21.844 h -7.7216 v 21.844 c 0,10.8204 7.7216,14.3256 14.8336,14.3256 z"
         style="-inkscape-font-specification:'Overpass Heavy'"
         id="path20371" />
      <path
         d="m 330.66781,200.61194 h 7.7216 v -35.56 h -7.7216 z"
         style="-inkscape-font-specification:'Overpass Heavy'"
         id="path20373" />
      <path
         d="m 346.21266,200.61194 h 24.7904 v -7.4676 h -17.0688 v -28.0924 h -7.7216 z"
         style="-inkscape-font-specification:'Overpass Heavy'"
         id="path20375" />
      <path
         d="m 375.16864,165.05194 v 35.56 h 12.9032 c 13.0556,0 17.5768,-9.7028 17.5768,-17.78 0,-8.89 -4.9276,-17.78 -17.3736,-17.78 z m 13.716,28.194 h -5.9944 v -20.8788 h 6.5532 c 5.6388,0 8.1788,5.4356 8.1788,10.4648 0,4.826 -2.3876,10.414 -8.7376,10.414 z"
         style="-inkscape-font-specification:'Overpass Heavy'"
         id="path20377" />
    </g>
    <g
       aria-label="BUILDBUILD"
       id="text2361-3"
       style="font-size:50.8px;font-family:'Inconsolata Nerd Font Mono';-inkscape-font-specification:'Inconsolata Nerd Font Mono';letter-spacing:0px;word-spacing:0px;fill:#b3bec3;stroke-width:0.264583">
      <path
         d="m 216.47377,209.52946 v 35.56 h 17.4244 c 9.0424,0 12.2428,-5.4864 12.2428,-10.668 0,-2.8448 -1.4224,-6.4516 -5.1816,-7.874 2.9972,-1.4224 4.0132,-4.2672 4.0132,-7.366 0,-4.826 -2.9464,-9.652 -11.7348,-9.652 z m 16.002,13.8684 h -8.2804 v -6.6548 h 9.0932 c 3.2512,0 3.81,1.7272 3.81,3.302 0,2.032 -1.4224,3.3528 -4.6228,3.3528 z m 1.778,14.4272 h -10.0584 v -7.4676 h 8.6868 c 4.5212,0 5.4356,2.032 5.4356,3.9116 0,1.5748 -0.9652,3.556 -4.064,3.556 z"
         style="-inkscape-font-specification:'Overpass Heavy'"
         id="path20390" />
      <path
         d="m 266.61341,245.69906 c 7.3152,0 14.8336,-3.7084 14.8336,-14.3256 v -21.844 h -7.7216 v 21.844 c 0,5.2324 -2.54,6.858 -7.112,6.858 -4.7244,0 -7.112,-1.6256 -7.112,-6.858 v -21.844 h -7.7216 v 21.844 c 0,10.8204 7.7216,14.3256 14.8336,14.3256 z"
         style="-inkscape-font-specification:'Overpass Heavy'"
         id="path20392" />
      <path
         d="m 289.06706,245.08946 h 7.7216 v -35.56 h -7.7216 z"
         style="-inkscape-font-specification:'Overpass Heavy'"
         id="path20394" />
      <path
         d="m 304.6119,245.08946 h 24.7904 v -7.4676 h -17.0688 v -28.0924 h -7.7216 z"
         style="-inkscape-font-specification:'Overpass Heavy'"
         id="path20396" />
      <path
         d="m 333.56789,209.52946 v 35.56 h 12.9032 c 13.0556,0 17.5768,-9.7028 17.5768,-17.78 0,-8.89 -4.9276,-17.78 -17.3736,-17.78 z m 13.716,28.194 h -5.9944 v -20.8788 h 6.5532 c 5.6388,0 8.1788,5.4356 8.1788,10.4648 0,4.826 -2.3876,10.414 -8.7376,10.414 z"
         style="-inkscape-font-specification:'Overpass Heavy'"
         id="path20398" />
      <path
         d="m 370.34712,209.52946 v 35.56 h 17.4244 c 9.0424,0 12.2428,-5.4864 12.2428,-10.668 0,-2.8448 -1.4224,-6.4516 -5.1816,-7.874 2.9972,-1.4224 4.0132,-4.2672 4.0132,-7.366 0,-4.826 -2.9464,-9.652 -11.7348,-9.652 z m 16.002,13.8684 h -8.2804 v -6.6548 h 9.0932 c 3.2512,0 3.81,1.7272 3.81,3.302 0,2.032 -1.4224,3.3528 -4.6228,3.3528 z m 1.778,14.4272 h -10.0584 v -7.4676 h 8.6868 c 4.5212,0 5.4356,2.032 5.4356,3.9116 0,1.5748 -0.9652,3.556 -4.064,3.556 z"
         style="-inkscape-font-specification:'Overpass Heavy'"
         id="path20400" />
      <path
         d="m 420.48677,245.69906 c 7.3152,0 14.8336,-3.7084 14.8336,-14.3256 v -21.844 h -7.7216 v 21.844 c 0,5.2324 -2.54,6.858 -7.112,6.858 -4.7244,0 -7.112,-1.6256 -7.112,-6.858 v -21.844 h -7.7216 v 21.844 c 0,10.8204 7.7216,14.3256 14.8336,14.3256 z"
         style="-inkscape-font-specification:'Overpass Heavy'"
         id="path20402" />
      <path
         d="m 442.94042,245.08946 h 7.7216 v -35.56 h -7.7216 z"
         style="-inkscape-font-specification:'Overpass Heavy'"
         id="path20404" />
      <path
         d="m 458.48526,245.08946 h 24.7904 v -7.4676 h -17.0688 v -28.0924 h -7.7216 z"
         style="-inkscape-font-specification:'Overpass Heavy'"
         id="path20406" />
      <path
         d="m 487.44124,209.52946 v 35.56 h 12.9032 c 13.0556,0 17.5768,-9.7028 17.5768,-17.78 0,-8.89 -4.9276,-17.78 -17.3736,-17.78 z m 13.716,28.194 h -5.9944 v -20.8788 h 6.5532 c 5.6388,0 8.1788,5.4356 8.1788,10.4648 0,4.826 -2.3876,10.414 -8.7376,10.414 z"
         style="-inkscape-font-specification:'Overpass Heavy'"
         id="path20408" />
    </g>
    <g
       aria-label="BUILDBUILD"
       id="text2361-3-7"
       style="font-size:50.8px;font-family:'Inconsolata Nerd Font Mono';-inkscape-font-specification:'Inconsolata Nerd Font Mono';letter-spacing:0px;word-spacing:0px;fill:#b3bec3;stroke-width:0.264583">
      <path
         d="m 114.82518,254.74893 v 35.56 h 17.4244 c 9.0424,0 12.2428,-5.4864 12.2428,-10.668 0,-2.8448 -1.4224,-6.4516 -5.1816,-7.874 2.9972,-1.4224 4.0132,-4.2672 4.0132,-7.366 0,-4.826 -2.9464,-9.652 -11.7348,-9.652 z m 16.002,13.8684 h -8.2804 v -6.6548 h 9.0932 c 3.2512,0 3.81,1.7272 3.81,3.302 0,2.032 -1.4224,3.3528 -4.6228,3.3528 z m 1.778,14.4272 h -10.0584 v -7.4676 h 8.6868 c 4.5212,0 5.4356,2.032 5.4356,3.9116 0,1.5748 -0.9652,3.556 -4.064,3.556 z"
         style="-inkscape-font-specification:'Overpass Heavy'"
         id="path20431" />
      <path
         d="m 164.96482,290.91853 c 7.3152,0 14.8336,-3.7084 14.8336,-14.3256 v -21.844 h -7.7216 v 21.844 c 0,5.2324 -2.54,6.858 -7.112,6.858 -4.7244,0 -7.112,-1.6256 -7.112,-6.858 v -21.844 h -7.7216 v 21.844 c 0,10.8204 7.7216,14.3256 14.8336,14.3256 z"
         style="-inkscape-font-specification:'Overpass Heavy'"
         id="path20433" />
      <path
         d="m 187.41847,290.30893 h 7.7216 v -35.56 h -7.7216 z"
         style="-inkscape-font-specification:'Overpass Heavy'"
         id="path20435" />
      <path
         d="m 202.96331,290.30893 h 24.7904 v -7.4676 h -17.0688 v -28.0924 h -7.7216 z"
         style="-inkscape-font-specification:'Overpass Heavy'"
         id="path20437" />
      <path
         d="m 231.9193,254.74893 v 35.56 h 12.9032 c 13.0556,0 17.5768,-9.7028 17.5768,-17.78 0,-8.89 -4.9276,-17.78 -17.3736,-17.78 z m 13.716,28.194 h -5.9944 v -20.8788 h 6.5532 c 5.6388,0 8.1788,5.4356 8.1788,10.4648 0,4.826 -2.3876,10.414 -8.7376,10.414 z"
         style="-inkscape-font-specification:'Overpass Heavy'"
         id="path20439" />
      <path
         d="m 268.69853,254.74893 v 35.56 h 17.4244 c 9.0424,0 12.2428,-5.4864 12.2428,-10.668 0,-2.8448 -1.4224,-6.4516 -5.1816,-7.874 2.9972,-1.4224 4.0132,-4.2672 4.0132,-7.366 0,-4.826 -2.9464,-9.652 -11.7348,-9.652 z m 16.002,13.8684 h -8.2804 v -6.6548 h 9.0932 c 3.2512,0 3.81,1.7272 3.81,3.302 0,2.032 -1.4224,3.3528 -4.6228,3.3528 z m 1.778,14.4272 h -10.0584 v -7.4676 h 8.6868 c 4.5212,0 5.4356,2.032 5.4356,3.9116 0,1.5748 -0.9652,3.556 -4.064,3.556 z"
         style="-inkscape-font-specification:'Overpass Heavy'"
         id="path20441" />
      <path
         d="m 318.83818,290.91853 c 7.3152,0 14.8336,-3.7084 14.8336,-14.3256 v -21.844 h -7.7216 v 21.844 c 0,5.2324 -2.54,6.858 -7.112,6.858 -4.7244,0 -7.112,-1.6256 -7.112,-6.858 v -21.844 h -7.7216 v 21.844 c 0,10.8204 7.7216,14.3256 14.8336,14.3256 z"
         style="-inkscape-font-specification:'Overpass Heavy'"
         id="path20443" />
      <path
         d="m 341.29183,290.30893 h 7.7216 v -35.56 h -7.7216 z"
         style="-inkscape-font-specification:'Overpass Heavy'"
         id="path20445" />
      <path
         d="m 356.83667,290.30893 h 24.7904 v -7.4676 h -17.0688 v -28.0924 h -7.7216 z"
         style="-inkscape-font-specification:'Overpass Heavy'"
         id="path20447" />
      <path
         d="m 385.79265,254.74893 v 35.56 h 12.9032 c 13.0556,0 17.5768,-9.7028 17.5768,-17.78 0,-8.89 -4.9276,-17.78 -17.3736,-17.78 z m 13.716,28.194 h -5.9944 v -20.8788 h 6.5532 c 5.6388,0 8.1788,5.4356 8.1788,10.4648 0,4.826 -2.3876,10.414 -8.7376,10.414 z"
         style="-inkscape-font-specification:'Overpass Heavy'"
         id="path20449" />
    </g>
  </g>
</svg>
